<svg width="128" height="128" viewBox="0 0 128 128" fill="none" xmlns="http://www.w3.org/2000/svg">
<circle cx="64" cy="64" r="62" fill="white" stroke="#31C5F0" stroke-width="4"/>
<path d="M56.6797 69.8877H62.1172C61.834 72.4932 61.0882 74.8249 59.8799 76.8828C58.6715 78.9408 56.9629 80.5739 54.7539 81.7822C52.5449 82.9717 49.7884 83.5664 46.4844 83.5664C44.0677 83.5664 41.8682 83.1133 39.8857 82.207C37.9222 81.3008 36.2324 80.0169 34.8164 78.3555C33.4004 76.6751 32.3053 74.6644 31.5312 72.3232C30.776 69.9632 30.3984 67.3389 30.3984 64.4502V60.3438C30.3984 57.4551 30.776 54.8402 31.5312 52.499C32.3053 50.139 33.4098 48.1188 34.8447 46.4385C36.2985 44.7581 38.0449 43.4648 40.084 42.5586C42.123 41.6523 44.417 41.1992 46.9658 41.1992C50.0811 41.1992 52.7148 41.7845 54.8672 42.9551C57.0195 44.1257 58.6904 45.7493 59.8799 47.8262C61.0882 49.8841 61.834 52.2725 62.1172 54.9912H56.6797C56.4154 53.0654 55.9245 51.4134 55.207 50.0352C54.4896 48.638 53.4701 47.5618 52.1484 46.8066C50.8268 46.0514 49.0993 45.6738 46.9658 45.6738C45.1344 45.6738 43.5202 46.0231 42.123 46.7217C40.7448 47.4202 39.5837 48.4115 38.6396 49.6953C37.7145 50.9792 37.016 52.5179 36.5439 54.3115C36.0719 56.1051 35.8359 58.097 35.8359 60.2871V64.4502C35.8359 66.4704 36.0436 68.3678 36.459 70.1426C36.8932 71.9173 37.5446 73.4749 38.4131 74.8154C39.2816 76.1559 40.3861 77.2132 41.7266 77.9873C43.0671 78.7425 44.653 79.1201 46.4844 79.1201C48.8066 79.1201 50.6569 78.752 52.0352 78.0156C53.4134 77.2793 54.4518 76.222 55.1504 74.8438C55.8678 73.4655 56.3776 71.8135 56.6797 69.8877ZM82.876 76.7412L95.0254 41.7656H100.944L85.6797 83H81.46L82.876 76.7412ZM71.5195 41.7656L83.5557 76.7412L85.0566 83H80.8369L65.6006 41.7656H71.5195Z" fill="#31C5F0"/>
</svg>
