<svg width="700" height="700" viewBox="0 0 700 700" fill="none" xmlns="http://www.w3.org/2000/svg">
<circle cx="350" cy="350" r="350" fill="#4CB7EC"/>
<circle cx="350" cy="350" r="226.471" fill="white"/>
<path d="M269.128 412.28C262.813 412.28 257.309 410.829 252.616 407.928C248.008 405.027 243.656 400.163 239.56 393.336L250.312 386.552C252.445 389.709 254.536 392.312 256.584 394.36C258.717 396.323 260.893 397.773 263.112 398.712C265.331 399.651 267.677 400.12 270.152 400.12C273.139 400.12 275.912 399.395 278.472 397.944C281.032 396.408 283.08 394.317 284.616 391.672C286.152 389.027 286.92 386.04 286.92 382.712C286.92 379.384 286.323 376.568 285.128 374.264C283.933 371.875 282.184 370.083 279.88 368.888C277.576 367.608 274.845 366.968 271.688 366.968C270.237 366.968 268.701 367.139 267.08 367.48C265.544 367.736 263.88 368.163 262.088 368.76C260.296 369.272 258.333 369.955 256.2 370.808L252.36 360.696L280.008 330.232L282.696 334.2H244.552V321.4H295.88L298.44 326.52L269.128 359.032L265.928 355.704C266.611 355.363 267.72 355.064 269.256 354.808C270.877 354.467 272.2 354.296 273.224 354.296C276.979 354.296 280.477 355.021 283.72 356.472C287.048 357.837 289.907 359.8 292.296 362.36C294.771 364.835 296.691 367.779 298.056 371.192C299.507 374.52 300.232 378.104 300.232 381.944C300.232 387.747 298.824 392.952 296.008 397.56C293.277 402.083 289.565 405.667 284.872 408.312C280.179 410.957 274.931 412.28 269.128 412.28ZM340.974 411C336.537 411 332.398 410.232 328.558 408.696C324.803 407.075 321.518 404.856 318.702 402.04C315.971 399.224 313.795 395.896 312.174 392.056C310.638 388.216 309.87 383.992 309.87 379.384C309.87 377.08 310.169 374.52 310.766 371.704C311.449 368.803 312.43 365.645 313.71 362.232C315.075 358.819 316.697 355.235 318.574 351.48C320.451 347.64 322.627 343.672 325.102 339.576L336.75 319.864H350.19L350.702 321.144L336.622 344.824C334.062 349.176 331.758 353.315 329.71 357.24C327.747 361.165 326.083 364.877 324.718 368.376C323.353 371.789 322.329 374.904 321.646 377.72L318.574 364.536C320.195 361.891 321.945 359.587 323.822 357.624C325.699 355.576 327.705 353.869 329.838 352.504C332.057 351.139 334.361 350.115 336.75 349.432C339.139 348.749 341.614 348.408 344.174 348.408C349.123 348.408 353.646 349.773 357.742 352.504C361.923 355.149 365.251 358.691 367.726 363.128C370.286 367.565 371.566 372.429 371.566 377.72C371.566 384.12 370.243 389.837 367.598 394.872C365.038 399.821 361.454 403.747 356.846 406.648C352.238 409.549 346.947 411 340.974 411ZM340.974 398.2C344.302 398.2 347.246 397.432 349.806 395.896C352.451 394.275 354.499 392.056 355.95 389.24C357.486 386.339 358.254 383.053 358.254 379.384C358.254 376.227 357.486 373.283 355.95 370.552C354.414 367.736 352.366 365.475 349.806 363.768C347.246 362.061 344.387 361.208 341.23 361.208C337.731 361.208 334.617 362.019 331.886 363.64C329.155 365.261 327.022 367.437 325.486 370.168C323.95 372.899 323.182 375.928 323.182 379.256C323.182 382.84 323.95 386.083 325.486 388.984C327.022 391.8 329.113 394.061 331.758 395.768C334.403 397.389 337.475 398.2 340.974 398.2ZM414.784 412.28C407.957 412.28 402.069 410.403 397.12 406.648C392.256 402.893 388.501 397.603 385.856 390.776C383.211 383.864 381.888 375.672 381.888 366.2C381.888 356.728 383.211 348.579 385.856 341.752C388.501 334.84 392.256 329.507 397.12 325.752C402.069 321.997 407.957 320.12 414.784 320.12C421.611 320.12 427.499 321.997 432.448 325.752C437.397 329.507 441.195 334.84 443.84 341.752C446.485 348.579 447.808 356.728 447.808 366.2C447.808 375.672 446.485 383.864 443.84 390.776C441.195 397.603 437.397 402.893 432.448 406.648C427.499 410.403 421.611 412.28 414.784 412.28ZM414.784 399.736C421.013 399.736 425.835 396.835 429.248 391.032C432.661 385.144 434.368 376.867 434.368 366.2C434.368 355.533 432.661 347.299 429.248 341.496C425.835 335.608 421.013 332.664 414.784 332.664C408.555 332.664 403.733 335.608 400.32 341.496C396.907 347.299 395.2 355.533 395.2 366.2C395.2 376.867 396.907 385.144 400.32 391.032C403.733 396.835 408.555 399.736 414.784 399.736Z" fill="#484848"/>
<path d="M261.96 283.4C260.227 283.4 258.64 282.92 257.2 281.96C255.787 281 254.653 279.693 253.8 278.04C252.947 276.387 252.52 274.52 252.52 272.44C252.52 270.333 252.947 268.467 253.8 266.84C254.68 265.187 255.853 263.893 257.32 262.96C258.813 262.027 260.48 261.56 262.32 261.56C263.413 261.56 264.413 261.72 265.32 262.04C266.227 262.36 267.013 262.813 267.68 263.4C268.373 263.96 268.933 264.613 269.36 265.36C269.813 266.107 270.093 266.907 270.2 267.76L269.28 267.44V262H273.44V283H269.28V278L270.24 277.72C270.08 278.44 269.747 279.147 269.24 279.84C268.76 280.507 268.133 281.107 267.36 281.64C266.613 282.173 265.773 282.6 264.84 282.92C263.933 283.24 262.973 283.4 261.96 283.4ZM263.04 279.6C264.293 279.6 265.4 279.293 266.36 278.68C267.32 278.067 268.067 277.227 268.6 276.16C269.16 275.067 269.44 273.827 269.44 272.44C269.44 271.08 269.16 269.867 268.6 268.8C268.067 267.733 267.32 266.893 266.36 266.28C265.4 265.667 264.293 265.36 263.04 265.36C261.813 265.36 260.72 265.667 259.76 266.28C258.827 266.893 258.08 267.733 257.52 268.8C256.987 269.867 256.72 271.08 256.72 272.44C256.72 273.827 256.987 275.067 257.52 276.16C258.08 277.227 258.827 278.067 259.76 278.68C260.72 279.293 261.813 279.6 263.04 279.6ZM279.193 283V262H283.353V268.6L282.953 267C283.246 265.987 283.739 265.067 284.433 264.24C285.153 263.413 285.966 262.76 286.872 262.28C287.806 261.8 288.766 261.56 289.753 261.56C290.206 261.56 290.633 261.6 291.033 261.68C291.459 261.76 291.793 261.853 292.033 261.96L290.953 266.44C290.633 266.307 290.273 266.2 289.873 266.12C289.499 266.013 289.126 265.96 288.753 265.96C288.033 265.96 287.339 266.107 286.673 266.4C286.033 266.667 285.459 267.053 284.953 267.56C284.473 268.04 284.086 268.613 283.793 269.28C283.499 269.92 283.353 270.627 283.353 271.4V283H279.193ZM298.707 283V256.64H302.827V283H298.707ZM294.347 266V262H307.707V266H294.347ZM312.138 283V262H316.258V283H312.138ZM314.138 257.36C313.258 257.36 312.578 257.133 312.098 256.68C311.618 256.227 311.378 255.587 311.378 254.76C311.378 253.987 311.618 253.36 312.098 252.88C312.605 252.4 313.285 252.16 314.138 252.16C315.018 252.16 315.698 252.387 316.178 252.84C316.658 253.293 316.898 253.933 316.898 254.76C316.898 255.533 316.645 256.16 316.138 256.64C315.658 257.12 314.991 257.36 314.138 257.36ZM331.511 283.4C329.564 283.4 327.818 282.92 326.271 281.96C324.751 281 323.538 279.693 322.631 278.04C321.751 276.387 321.311 274.533 321.311 272.48C321.311 270.427 321.751 268.573 322.631 266.92C323.538 265.267 324.751 263.96 326.271 263C327.818 262.04 329.564 261.56 331.511 261.56C333.378 261.56 335.071 261.947 336.591 262.72C338.138 263.467 339.311 264.493 340.111 265.8L337.831 268.6C337.404 267.987 336.858 267.427 336.191 266.92C335.524 266.413 334.818 266.013 334.071 265.72C333.324 265.427 332.604 265.28 331.911 265.28C330.631 265.28 329.484 265.6 328.471 266.24C327.484 266.853 326.698 267.707 326.111 268.8C325.524 269.893 325.231 271.12 325.231 272.48C325.231 273.84 325.538 275.067 326.151 276.16C326.764 277.227 327.578 278.08 328.591 278.72C329.604 279.36 330.724 279.68 331.951 279.68C332.671 279.68 333.364 279.56 334.031 279.32C334.724 279.08 335.391 278.72 336.031 278.24C336.671 277.76 337.271 277.173 337.831 276.48L340.111 279.28C339.258 280.48 338.031 281.467 336.431 282.24C334.858 283.013 333.218 283.4 331.511 283.4ZM351.357 283.4C349.864 283.4 348.557 283.053 347.437 282.36C346.344 281.667 345.491 280.693 344.877 279.44C344.291 278.187 343.997 276.693 343.997 274.96V262H348.117V273.84C348.117 275.067 348.304 276.133 348.677 277.04C349.077 277.92 349.637 278.6 350.357 279.08C351.104 279.56 351.997 279.8 353.037 279.8C353.811 279.8 354.517 279.68 355.157 279.44C355.797 279.173 356.344 278.813 356.797 278.36C357.277 277.907 357.651 277.36 357.917 276.72C358.184 276.08 358.317 275.387 358.317 274.64V262H362.437V283H358.317V278.6L359.037 278.12C358.717 279.107 358.171 280 357.397 280.8C356.651 281.6 355.757 282.24 354.717 282.72C353.677 283.173 352.557 283.4 351.357 283.4ZM368.296 283V253.4H372.416V283H368.296ZM385.944 283.4C384.211 283.4 382.624 282.92 381.184 281.96C379.771 281 378.638 279.693 377.784 278.04C376.931 276.387 376.504 274.52 376.504 272.44C376.504 270.333 376.931 268.467 377.784 266.84C378.664 265.187 379.838 263.893 381.304 262.96C382.798 262.027 384.464 261.56 386.304 261.56C387.398 261.56 388.398 261.72 389.304 262.04C390.211 262.36 390.998 262.813 391.664 263.4C392.358 263.96 392.918 264.613 393.344 265.36C393.798 266.107 394.078 266.907 394.184 267.76L393.264 267.44V262H397.424V283H393.264V278L394.224 277.72C394.064 278.44 393.731 279.147 393.224 279.84C392.744 280.507 392.118 281.107 391.344 281.64C390.598 282.173 389.758 282.6 388.824 282.92C387.918 283.24 386.958 283.4 385.944 283.4ZM387.024 279.6C388.278 279.6 389.384 279.293 390.344 278.68C391.304 278.067 392.051 277.227 392.584 276.16C393.144 275.067 393.424 273.827 393.424 272.44C393.424 271.08 393.144 269.867 392.584 268.8C392.051 267.733 391.304 266.893 390.344 266.28C389.384 265.667 388.278 265.36 387.024 265.36C385.798 265.36 384.704 265.667 383.744 266.28C382.811 266.893 382.064 267.733 381.504 268.8C380.971 269.867 380.704 271.08 380.704 272.44C380.704 273.827 380.971 275.067 381.504 276.16C382.064 277.227 382.811 278.067 383.744 278.68C384.704 279.293 385.798 279.6 387.024 279.6ZM405.777 283V256.64H409.897V283H405.777ZM401.417 266V262H414.777V266H401.417ZM428.133 283.4C425.973 283.4 424.053 282.947 422.373 282.04C420.72 281.107 419.413 279.84 418.453 278.24C417.52 276.64 417.053 274.8 417.053 272.72C417.053 271.067 417.32 269.56 417.853 268.2C418.386 266.84 419.12 265.667 420.053 264.68C421.013 263.667 422.146 262.893 423.453 262.36C424.786 261.8 426.226 261.52 427.773 261.52C429.133 261.52 430.4 261.787 431.573 262.32C432.746 262.827 433.76 263.533 434.613 264.44C435.493 265.347 436.16 266.427 436.613 267.68C437.093 268.907 437.32 270.253 437.293 271.72L437.253 273.48H420.093L419.173 270.2H433.693L433.093 270.88V269.92C433.013 269.04 432.72 268.253 432.213 267.56C431.706 266.867 431.066 266.32 430.293 265.92C429.52 265.52 428.68 265.32 427.773 265.32C426.333 265.32 425.12 265.6 424.133 266.16C423.146 266.693 422.4 267.493 421.893 268.56C421.386 269.6 421.133 270.893 421.133 272.44C421.133 273.907 421.44 275.187 422.053 276.28C422.666 277.347 423.533 278.173 424.653 278.76C425.773 279.347 427.066 279.64 428.533 279.64C429.573 279.64 430.533 279.467 431.413 279.12C432.32 278.773 433.293 278.147 434.333 277.24L436.413 280.16C435.773 280.8 434.986 281.36 434.053 281.84C433.146 282.32 432.173 282.707 431.133 283C430.12 283.267 429.12 283.4 428.133 283.4Z" fill="#484848"/>
</svg>
