<svg width="618" height="700" viewBox="0 0 618 700" fill="none" xmlns="http://www.w3.org/2000/svg">
<path d="M56.15 630.025L0 0H617.2L560.975 629.925L308.225 700L56.15 630.025Z" fill="#1572B6"/>
<path d="M308.6 646.45L512.85 589.825L560.9 51.5254H308.6V646.45Z" fill="#33A9DC"/>
<path d="M308.6 279.775H410.85L417.9 200.65H308.6V123.375H308.875H502.35L500.5 144.1L481.525 357.05H308.6V279.775Z" fill="white"/>
<path d="M309.075 480.45L308.725 480.55L222.675 457.3L217.175 395.675H175.35H139.6L150.425 517L308.7 560.95L309.075 560.85V480.45Z" fill="#EBEBEB"/>
<path d="M404.275 353.775L394.975 457.25L308.8 480.5V560.9L467.2 517L468.375 503.95L481.8 353.775H404.275Z" fill="white"/>
<path d="M308.875 123.375V171.375V200.45V200.65H122.475H122.225L120.675 183.275L117.15 144.1L115.3 123.375H308.875Z" fill="#EBEBEB"/>
<path d="M308.6 279.775V327.775V356.85V357.05H223.875H223.625L222.075 339.675L218.575 300.5L216.725 279.775H308.6Z" fill="#EBEBEB"/>
</svg>
