<svg width="467" height="700" viewBox="0 0 467 700" fill="none" xmlns="http://www.w3.org/2000/svg">
<path fill-rule="evenodd" clip-rule="evenodd" d="M233.333 350C233.333 285.568 285.568 233.333 350 233.333C414.432 233.333 466.667 285.568 466.667 350C466.667 414.432 414.432 466.667 350 466.667C285.568 466.667 233.333 414.432 233.333 350Z" fill="#1ABCFE"/>
<path fill-rule="evenodd" clip-rule="evenodd" d="M0 583.333C0 518.901 52.2334 466.667 116.667 466.667H233.333V583.333C233.333 647.765 181.099 700 116.667 700C52.2334 700 0 647.765 0 583.333Z" fill="#0ACF83"/>
<path fill-rule="evenodd" clip-rule="evenodd" d="M233.333 0V233.333H350C414.432 233.333 466.667 181.099 466.667 116.667C466.667 52.2334 414.432 0 350 0H233.333Z" fill="#FF7262"/>
<path fill-rule="evenodd" clip-rule="evenodd" d="M0 116.667C0 181.099 52.2334 233.333 116.667 233.333H233.333V0H116.667C52.2334 0 0 52.2334 0 116.667Z" fill="#F24E1E"/>
<path fill-rule="evenodd" clip-rule="evenodd" d="M0 350C0 414.432 52.2334 466.667 116.667 466.667H233.333V233.333H116.667C52.2334 233.333 0 285.568 0 350Z" fill="#A259FF"/>
</svg>
