<svg width="700" height="700" viewBox="0 0 700 700" fill="none" xmlns="http://www.w3.org/2000/svg">
<path d="M14.634 385.33C-4.878 365.818 -4.878 334.183 14.634 314.67L314.67 14.634C334.183 -4.878 365.818 -4.878 385.33 14.634L685.366 314.67C704.878 334.183 704.878 365.818 685.366 385.33L385.33 685.366C365.818 704.878 334.183 704.878 314.67 685.366L14.634 385.33Z" fill="#EE513B"/>
<path d="M253.723 76.5381L223.34 106.922L301.813 185.394C298.638 192.205 296.865 199.8 296.865 207.81C296.865 230.55 311.153 249.953 331.24 257.53V449.495C311.153 457.073 296.865 476.475 296.865 499.215C296.865 528.555 320.65 552.34 349.99 552.34C379.33 552.34 403.115 528.555 403.115 499.215C403.115 478.6 391.373 460.725 374.21 451.92V257.793L449.223 332.805C446.203 339.478 444.523 346.885 444.523 354.685C444.523 384.025 468.308 407.81 497.648 407.81C526.988 407.81 550.773 384.025 550.773 354.685C550.773 325.345 526.988 301.56 497.648 301.56C491.945 301.56 486.455 302.458 481.305 304.12L400.743 223.558C402.285 218.583 403.115 213.293 403.115 207.81C403.115 178.47 379.33 154.685 349.99 154.685C344.508 154.685 339.22 155.515 334.243 157.058L253.723 76.5381Z" fill="white"/>
</svg>
