<svg width="700" height="700" viewBox="0 0 700 700" fill="none" xmlns="http://www.w3.org/2000/svg">
<path d="M97.0703 628.906L41.0156 0H657.617L601.562 628.906L348.633 700" fill="#E34F26"/>
<path d="M350 645.312L553.711 589.258L601.562 50.5859H350" fill="#EF652A"/>
<path d="M350 284.375H247.461L240.625 205.078H350V128.516H155.859L176.367 362.305H350V284.375ZM348.633 485.352L262.5 462.109L257.031 400.586H180.469L190.039 522.266L348.633 566.016V485.352Z" fill="#EBEBEB"/>
<path d="M348.633 284.375V362.305H444.336L434.766 462.109L348.633 485.352V566.016L507.227 522.266L529.102 284.375H348.633ZM348.633 128.516V205.078H535.938L542.773 128.516H348.633Z" fill="white"/>
</svg>
