<svg width="700" height="700" viewBox="0 0 700 700" fill="none" xmlns="http://www.w3.org/2000/svg">
<circle cx="350" cy="350" r="350" fill="#F7DF1E"/>
<path d="M578.286 401.978C573.163 370.039 552.336 343.223 490.653 318.204C469.227 308.357 445.34 301.304 438.22 285.068C435.691 275.619 435.359 270.296 436.955 264.573C441.547 246.009 463.705 240.22 481.271 245.543C492.583 249.336 503.296 258.053 509.75 271.959C539.959 252.397 539.893 252.53 560.986 239.089C553.267 227.112 549.142 221.588 544.085 216.466C525.919 196.171 501.166 185.724 461.575 186.523C454.722 187.388 447.802 188.318 440.948 189.184C421.186 194.175 402.355 204.555 391.309 218.462C358.172 256.057 367.621 321.864 407.944 348.947C447.668 378.756 506.024 385.543 513.476 413.424C520.729 447.559 488.391 458.604 456.252 454.678C432.564 449.755 419.39 437.711 405.149 415.819C378.933 430.99 378.933 430.99 351.985 446.494C358.373 460.467 365.092 466.789 375.806 478.899C426.509 530.334 553.4 527.806 576.158 449.954C577.089 447.292 583.211 429.459 578.286 401.978ZM316.119 190.647H250.644C250.644 247.206 250.378 303.366 250.378 359.925C250.378 395.923 252.241 428.927 246.386 439.041C236.804 458.936 211.985 456.474 200.673 452.614C189.161 446.958 183.306 438.907 176.519 427.53C174.656 424.269 173.258 421.741 172.792 421.541C155.027 432.387 137.326 443.299 119.56 454.145C128.411 472.311 141.452 488.081 158.153 498.327C183.106 513.299 216.642 517.89 251.709 509.839C274.532 503.185 294.227 489.412 304.541 468.452C319.446 440.971 316.252 407.701 316.119 370.904C316.452 310.885 316.119 250.866 316.119 190.647Z" fill="#323330"/>
</svg>
