<svg width="700" height="700" viewBox="0 0 700 700" fill="none" xmlns="http://www.w3.org/2000/svg">
<path d="M350 700C543.3 700 700 543.3 700 350C700 156.7 543.3 0 350 0C156.7 0 0 156.7 0 350C0 543.3 156.7 700 350 700Z" fill="#214674"/>
<path d="M429.101 345.802C457.101 355.602 471.801 372.402 471.801 396.902C471.801 413.002 466.201 424.902 454.301 434.702C442.401 443.802 426.301 449.402 404.601 449.402C384.301 449.402 365.401 443.802 347.901 434.702C345.801 433.302 344.401 431.202 344.401 428.402C345.101 424.202 346.501 419.302 348.601 414.402C350.701 410.202 352.101 406.702 354.201 403.202C356.301 400.402 359.101 399.702 362.601 401.102C378.001 408.102 390.601 412.302 402.501 412.302C408.101 412.302 413.001 411.602 416.501 409.502C420.001 407.402 421.401 404.602 421.401 401.802C421.401 395.502 416.501 390.602 406.701 387.802L389.201 381.502C362.601 371.702 349.301 356.302 349.301 333.902C349.301 317.802 354.901 305.202 366.101 296.102C377.301 287.002 392.001 278.602 410.901 278.602C420.001 278.602 430.501 280.002 441.701 282.802C451.501 284.902 459.201 289.802 466.201 294.002C468.301 295.402 469.701 297.502 469.701 300.302C469.701 305.202 468.301 310.102 466.201 315.702C464.101 320.602 462.001 324.802 459.201 327.602C457.101 329.702 454.301 330.402 452.201 329.002C436.101 322.002 422.801 318.502 411.601 318.502C407.401 318.502 403.901 319.202 401.801 321.302C399.701 323.402 398.301 325.502 398.301 328.302C398.301 333.202 402.501 337.402 410.201 340.202L429.101 345.802Z" fill="#F6F6F6"/>
<path d="M559.301 371.001C550.201 378.701 545.301 389.901 545.301 405.301V460.601C545.301 478.801 539.701 492.801 527.101 502.601C514.501 512.401 499.801 516.601 483.001 517.301H473.201V494.201C473.201 491.401 474.601 489.301 477.401 488.601C483.701 486.501 486.501 483.701 489.301 480.901C495.601 475.301 500.501 465.501 500.501 452.901V408.101C500.501 392.701 501.901 380.801 507.501 372.401C511.701 366.101 518.701 360.501 528.501 354.901C532.701 352.801 532.701 346.501 528.501 343.701C516.601 336.701 508.901 328.301 504.001 317.801C500.501 310.101 500.501 299.601 500.501 286.301V245.701C500.501 232.401 496.301 222.601 490.701 217.701C487.901 214.901 484.401 212.101 478.101 210.701C475.301 210.001 473.901 207.201 473.901 204.401V189.701C473.901 186.201 476.701 183.401 480.201 183.401C487.901 183.401 493.501 183.401 499.101 183.401C509.601 183.401 518.701 189.001 526.401 195.301C534.801 202.301 541.101 210.701 544.601 222.601C546.701 228.901 546.701 235.201 546.701 241.501V288.401C546.701 305.201 551.601 317.801 560.001 325.501C564.201 329.701 569.801 333.201 578.901 336.701C581.701 337.401 583.101 340.201 583.101 342.301V354.201C583.101 357.001 581.701 359.101 578.901 360.501C569.101 363.301 563.501 366.801 559.301 371.001Z" fill="#F6F6F6"/>
<path d="M215.6 183.401C212.1 183.401 209.3 183.401 206.5 183.401C196 183.401 186.9 189.001 179.2 195.301C170.8 202.301 163.1 210.701 161 222.601C159.6 229.601 160.3 235.201 160.3 241.501V288.401C160.3 305.201 154 317.101 145.6 325.501C141.4 329.701 133 333.201 123.2 336.701C120.4 338.101 119 340.201 119 343.001V354.901C119 357.701 120.4 359.801 123.2 361.201C131.6 364.001 139.3 367.501 144.2 371.701C153.3 379.401 159.6 390.601 159.6 406.001V461.301C159.6 479.501 163.8 493.501 176.4 503.301C189 513.101 203.7 517.301 220.5 518.001H225.4C228.9 518.001 231.7 515.201 231.7 511.701V494.901C231.7 492.101 230.3 490.001 227.5 489.301C221.2 487.201 217 484.401 214.2 481.601C207.9 476.001 204.4 466.201 204.4 453.601V408.801C204.4 393.401 201.6 381.501 196 373.101C191.8 366.801 184.8 361.201 175 355.601C170.8 353.501 170.8 347.201 175 344.401C186.9 337.401 194.6 329.001 199.5 318.501C203 310.801 204.4 300.301 204.4 287.001V246.401C204.4 233.101 207.2 223.301 212.8 218.401C215.6 215.601 220.5 213.501 227.5 211.401C228.2 211.401 228.9 211.401 229.6 211.401H233.8C237.3 211.401 240.1 208.601 240.1 205.101V190.401C240.1 186.901 237.3 184.101 233.8 184.101L215.6 183.401Z" fill="#F6F6F6"/>
<path d="M328.999 406.701H320.599C311.499 406.701 307.999 401.801 307.999 392.001V210.701C307.999 199.501 304.499 191.801 300.999 187.601C296.799 183.401 289.799 183.401 279.999 183.401H264.599C261.099 183.401 258.299 186.201 258.299 189.701V210.701V401.101C258.299 416.501 261.799 427.001 268.099 434.701C274.399 441.701 284.199 445.201 298.899 445.201C307.999 445.201 317.799 444.501 328.299 443.101C331.099 442.401 333.199 440.301 333.899 437.501C333.899 435.401 333.899 432.601 333.899 429.101C332.499 420.701 331.099 413.701 328.999 406.701Z" fill="#F6F6F6"/>
</svg>
