<svg width="540" height="750" viewBox="0 0 540 750" fill="none" xmlns="http://www.w3.org/2000/svg">
<path d="M304.696 679.688H234.384C227.907 679.688 222.666 684.93 222.666 691.407V703.126C222.666 728.977 243.689 750 269.54 750C295.391 750 316.414 728.977 316.414 703.126V691.407C316.414 684.93 311.173 679.688 304.696 679.688Z" fill="#868491"/>
<path d="M269.528 679.688H234.384C227.907 679.688 222.666 684.93 222.666 691.407V703.126C222.666 728.974 243.681 749.993 269.528 749.998V679.688Z" fill="#5C546A"/>
<path d="M454.067 73.0879C399.296 21.6126 327.555 -4.16969 252.312 0.549961C115.19 9.08254 4.41266 123.465 0.132456 260.957C-3.0257 362.831 50.4857 456.625 139.794 505.753C161.995 517.976 175.785 541.447 175.785 567.024V656.252C175.785 682.103 196.808 703.126 222.659 703.126H316.408C342.259 703.126 363.282 682.103 363.282 656.252V567.024C363.282 541.47 377.174 517.941 399.56 505.604C485.606 458.135 539.061 367.682 539.061 269.539C539.061 195.452 508.083 123.847 454.067 73.0879Z" fill="#FFCD00"/>
<path d="M269.527 457.036C373.079 457.036 457.024 373.091 457.024 269.539C457.024 165.987 373.079 82.042 269.527 82.042C165.976 82.042 82.0303 165.987 82.0303 269.539C82.0303 373.091 165.976 457.036 269.527 457.036Z" fill="#FFE671"/>
<path d="M310.519 339.849C294.944 339.849 286.98 330.763 281.178 324.136C276.062 318.3 274.025 316.412 269.459 316.412C264.915 316.412 262.891 318.3 257.798 324.126C252.328 330.385 244.053 339.849 228.478 339.849C212.914 339.849 204.641 330.385 199.17 324.126C194.076 318.3 192.052 316.412 187.508 316.412C181.031 316.412 175.79 311.171 175.79 304.693C175.79 298.216 181.031 292.975 187.508 292.975C203.072 292.975 211.345 302.439 216.816 308.698C221.909 314.524 223.934 316.412 228.478 316.412C233.022 316.412 235.058 314.524 240.151 308.698C245.621 302.439 253.895 292.975 269.459 292.975C285.034 292.975 292.999 302.061 298.801 308.688C303.916 314.524 305.954 316.412 310.519 316.412C315.074 316.412 317.111 314.524 322.226 308.698C327.708 302.439 335.982 292.975 351.568 292.975C358.046 292.975 363.287 298.216 363.287 304.693C363.287 311.171 358.046 316.412 351.568 316.412C347.002 316.412 344.965 318.3 339.85 324.136C334.368 330.396 326.095 339.849 310.519 339.849Z" fill="white"/>
<path d="M234.372 562.504C228.981 562.504 224.13 558.761 222.927 553.28L164.334 283.753C162.96 277.425 166.978 271.188 173.295 269.803C179.658 268.407 185.86 272.447 187.244 278.764L245.837 548.291C247.211 554.619 243.193 560.856 236.877 562.24C236.031 562.425 235.195 562.504 234.372 562.504Z" fill="#5C546A"/>
<path d="M304.705 562.503C303.881 562.503 303.046 562.422 302.199 562.239C295.881 560.855 291.865 554.618 293.239 548.29L351.832 278.763C353.216 272.445 359.396 268.417 365.781 269.802C372.099 271.187 376.115 277.424 374.741 283.752L316.148 553.279C314.949 558.762 310.096 562.503 304.705 562.503Z" fill="#5C546A"/>
<path d="M173.774 550.784C175.021 556.047 175.787 561.467 175.787 567.023V656.251C175.787 682.102 196.81 703.126 222.661 703.126H316.41C342.261 703.126 363.284 682.102 363.284 656.251V567.023C363.284 561.472 364.056 556.05 365.311 550.784H173.774Z" fill="#B4B6BC"/>
<path d="M269.528 550.784H173.774C175.021 556.047 175.787 561.467 175.787 567.023V656.251C175.787 682.102 196.81 703.126 222.661 703.126H269.528V550.784Z" fill="#868491"/>
<path d="M363.277 585.939H269.528V609.377H363.277V585.939Z" fill="#868491"/>
<path d="M363.282 632.815H269.533V656.253H363.282V632.815Z" fill="#868491"/>
<path d="M269.527 585.939H175.779V609.377H269.527V585.939Z" fill="#5C546A"/>
<path d="M269.527 632.815H175.779V656.253H269.527V632.815Z" fill="#5C546A"/>
</svg>
