<svg width="700" height="700" viewBox="0 0 700 700" fill="none" xmlns="http://www.w3.org/2000/svg">
<g clip-path="url(#clip0_40_63)">
<path d="M350 700C543.3 700 700 543.3 700 350C700 156.7 543.3 0 350 0C156.7 0 0 156.7 0 350C0 543.3 156.7 700 350 700Z" fill="#13AA52"/>
<path d="M443.556 307.234C421.449 209.665 369.202 177.584 363.576 165.327C357.424 156.68 351.189 141.299 351.189 141.299C351.087 141.039 350.923 140.581 350.731 140.137C350.095 148.784 349.767 152.12 341.592 160.843C328.931 170.741 263.976 225.244 258.692 336.096C253.763 439.482 333.375 501.088 344.141 508.942L345.365 509.811V509.735C345.433 510.255 348.783 534.345 351.134 559.87H359.57C361.549 541.827 364.516 523.906 368.457 506.188L369.14 505.743C373.956 502.29 378.548 498.534 382.887 494.498L383.38 494.054C406.266 472.91 447.412 424.006 447.009 346.035C446.923 333.029 445.769 320.051 443.556 307.234ZM350.239 450.57C350.239 450.57 350.239 305.566 355.024 305.594C358.757 305.594 363.59 492.632 363.59 492.632C356.945 491.832 350.239 461.85 350.239 450.57Z" fill="white"/>
</g>
<defs>
<clipPath id="clip0_40_63">
<rect width="700" height="700" fill="white"/>
</clipPath>
</defs>
</svg>
