<svg width="730" height="730" viewBox="0 0 730 730" fill="none" xmlns="http://www.w3.org/2000/svg">
<circle cx="364.861" cy="367.861" r="354.861" fill="white"/>
<path d="M365 0C163.739 0 0 163.739 0 365C0 566.261 163.739 730 365 730C566.261 730 730 566.261 730 365C730 163.739 566.261 0 365 0ZM365 54.75C536.075 54.75 675.25 193.925 675.25 365C675.25 471.799 621.005 566.116 538.625 621.961L287.295 249.298C280.597 239.315 268.048 234.959 256.605 238.426C245.107 241.967 237.25 252.598 237.25 264.625V501.875C237.25 516.986 249.514 529.25 264.625 529.25C279.736 529.25 292 516.986 292 501.875V354.164L490.504 648.481C452.07 665.545 409.676 675.25 365 675.25C193.925 675.25 54.75 536.075 54.75 365C54.75 193.925 193.925 54.75 365 54.75ZM465.375 200.75C450.264 200.75 438 213.014 438 228.125V383L492.75 461.525V228.125C492.75 213.014 480.486 200.75 465.375 200.75Z" fill="black"/>
</svg>
