<svg width="700" height="700" viewBox="0 0 700 700" fill="none" xmlns="http://www.w3.org/2000/svg">
<path d="M350 698.701C340.372 698.701 331.385 696.134 323.04 691.64L237.669 640.931C224.831 633.87 231.25 631.302 235.101 630.019C252.432 624.242 255.642 622.958 273.615 612.687C275.54 611.404 278.108 612.046 280.034 613.329L345.507 652.485C348.074 653.769 351.284 653.769 353.209 652.485L609.325 504.207C611.893 502.924 613.176 500.356 613.176 497.147V201.234C613.176 198.024 611.893 195.457 609.325 194.173L353.209 46.5373C350.642 45.2535 347.432 45.2535 345.507 46.5373L89.3911 194.173C86.8236 195.457 85.5398 198.666 85.5398 201.234V497.147C85.5398 499.714 86.8236 502.924 89.3911 504.207L159.358 544.647C197.229 563.904 220.979 541.437 220.979 518.971V226.909C220.979 223.058 224.189 219.207 228.682 219.207H261.419C265.27 219.207 269.121 222.416 269.121 226.909V518.971C269.121 569.681 241.52 599.208 193.378 599.208C178.614 599.208 167.06 599.208 134.324 583.16L66.9249 544.647C50.2356 535.018 39.9653 517.045 39.9653 497.788V201.876C39.9653 182.619 50.2356 164.646 66.9249 155.017L323.04 6.73988C339.088 -2.24663 360.912 -2.24663 376.959 6.73988L633.075 155.017C649.764 164.646 660.035 182.619 660.035 201.876V497.788C660.035 517.045 649.764 535.018 633.075 544.647L376.959 692.924C368.615 696.776 358.986 698.701 350 698.701ZM428.953 495.221C316.621 495.221 293.513 443.869 293.513 400.221C293.513 396.369 296.723 392.518 301.216 392.518H334.595C338.446 392.518 341.655 395.086 341.655 398.937C346.79 432.957 361.554 449.646 429.595 449.646C483.514 449.646 506.622 437.451 506.622 408.565C506.622 391.876 500.203 379.68 416.115 371.335C346.149 364.275 302.5 348.869 302.5 293.024C302.5 241.031 346.149 210.22 419.324 210.22C501.487 210.22 541.926 238.463 547.061 300.085C547.061 302.011 546.419 303.937 545.136 305.862C543.852 307.146 541.926 308.43 540 308.43H506.622C503.413 308.43 500.203 305.862 499.561 302.653C491.858 267.349 471.96 255.795 419.324 255.795C360.27 255.795 353.209 276.335 353.209 291.741C353.209 310.356 361.554 316.133 441.149 326.403C520.102 336.673 557.332 351.437 557.332 406.64C556.69 463.126 510.473 495.221 428.953 495.221Z" fill="#539E43"/>
</svg>
