<svg width="900" height="700" viewBox="0 0 900 700" fill="none" xmlns="http://www.w3.org/2000/svg">
<path d="M504 700H837C847.626 700 857.796 695.646 867 689.5C876.204 683.354 885.69 675.643 891 665C896.31 654.357 900.006 642.285 900 629.996C899.994 617.708 896.319 605.64 891 595.004L666 143.5C660.69 132.86 654.201 125.143 645 119C635.799 112.857 622.626 108.5 612 108.5C601.374 108.5 591.201 112.857 582 119C572.799 125.143 566.31 132.86 561 143.5L504 259L390 34.9917C384.684 24.3524 378.204 13.1422 369 7C359.796 0.857805 349.626 0 339 0C328.374 0 318.204 0.857805 309 7C299.797 13.1422 290.315 24.3524 285 34.9917L6.00002 595.004C0.680954 605.64 0.00464645 617.708 2.28241e-05 629.996C-0.00460081 642.285 0.688961 654.357 6.00002 665C11.3111 675.64 20.7974 683.354 30 689.5C39.2025 695.646 49.3734 700 60 700H270C353.211 700 413.775 656.453 456 574L558 367.5L612 259L777 588H558L504 700ZM267 588H120L339 147L450 367.5L376.473 517.038C348.432 570.535 316.464 588 267 588Z" fill="#00DC82"/>
</svg>
