<svg width="705" height="705" viewBox="0 0 705 705" fill="none" xmlns="http://www.w3.org/2000/svg">
<circle cx="353" cy="353" r="350" fill="#100C28"/>
<path d="M352.542 688.089C262.917 688.089 178.656 653.183 115.281 589.808C51.901 526.433 17 442.172 17 352.542C17 262.917 51.901 178.657 115.281 115.282C178.656 51.9065 262.917 17.0003 352.542 17.0003C442.172 17.0003 526.432 51.9065 589.807 115.282C653.182 178.657 688.089 262.917 688.089 352.542C688.089 442.172 653.182 526.433 589.807 589.808C526.432 653.183 442.172 688.089 352.542 688.089Z" stroke="#31C5F0" stroke-width="33.3333" stroke-miterlimit="10"/>
<path d="M164.917 183.818C164.917 181.615 169.177 180.146 171.677 180.146C191.229 179.266 220.339 178.677 250.479 178.677C335.161 178.677 368.24 225.13 368.24 284.38C368.24 362.005 311.932 395.38 242.839 395.38C231.219 395.38 227.25 394.792 219.021 394.792V512.115C219.021 514.61 218.135 515.787 215.344 515.787H168.594C166.089 515.787 164.917 514.906 164.917 512.115V183.818ZM219.458 346.13C226.516 346.719 231.953 346.719 244.161 346.719C279.885 346.719 313.552 334.224 313.552 285.557C313.552 246.745 289.437 227.193 248.719 227.193C236.516 227.193 224.901 227.781 219.312 228.073L219.458 346.13ZM482.328 309.813C458.219 309.813 449.984 322.016 449.984 332.162C449.984 343.188 455.422 350.833 487.911 367.594C535.839 390.823 550.839 413.167 550.839 445.807C550.839 494.766 513.495 521.078 463.068 521.078C436.458 521.078 413.521 515.641 400.437 507.995C398.234 507.115 397.937 505.495 397.937 503.146V458.011C397.937 454.922 399.406 454.042 401.615 455.511C420.875 468.005 442.927 473.594 463.068 473.594C487.177 473.594 497.323 463.448 497.323 449.776C497.323 438.75 490.266 429.047 459.391 413.021C416.021 392.292 397.937 371.266 397.937 335.985C397.937 296.583 428.812 263.797 482.328 263.797C508.641 263.797 527.021 267.766 537.016 272.328C539.521 273.797 540.109 276.297 540.109 278.5V320.401C540.109 322.901 538.635 324.37 535.547 323.485C522.021 314.964 502.177 309.813 482.328 309.813Z" fill="#31C5F0"/>
</svg>
