<svg width="808" height="700" viewBox="0 0 808 700" fill="none" xmlns="http://www.w3.org/2000/svg">
<path d="M475.97 349.351C475.97 310.733 443.681 279.421 403.846 279.421C364.016 279.421 331.722 310.733 331.722 349.351C331.722 387.975 364.016 419.284 403.846 419.284C443.681 419.284 475.97 387.975 475.97 349.351Z" fill="#53C1DE"/>
<path fill-rule="evenodd" clip-rule="evenodd" d="M638.088 219.523C653.318 159.513 672.463 48.2321 604.972 10.5043C537.797 -27.0591 450.38 44.9192 404.22 88.124C358.195 45.3497 268.323 -26.3208 200.89 11.5268C133.741 49.2162 154.448 158.652 170.017 219.038C107.378 236.288 0 273.441 0 349.351C0 425.045 107.266 465.468 169.534 482.701C153.908 543.421 134.237 651.293 201.473 688.9C269.158 726.74 358.75 656.775 405.338 613.098C451.793 656.557 538.37 726.98 605.559 689.268C672.958 651.439 655.405 541.649 639.835 480.913C700.197 463.642 807.692 424.1 807.692 349.351C807.692 274.171 699.739 236.716 638.088 219.523ZM630.436 448.727C620.214 417.351 606.415 383.985 589.537 349.518C605.648 315.864 618.91 282.929 628.848 251.755C674.043 264.46 773.19 293.496 773.19 349.351C773.19 405.731 678.047 435.042 630.436 448.727ZM588.269 660.315C538.138 688.45 463.672 621.105 429.364 589.101C452.125 564.965 474.869 536.905 497.067 505.747C536.117 502.39 573.004 496.898 606.458 489.4C617.416 532.361 638.621 632.054 588.269 660.315ZM218.713 659.914C168.577 631.885 191.493 535.624 202.988 490.896C236.071 497.993 272.693 503.098 311.834 506.175C334.177 536.663 357.582 564.687 381.166 589.23C352.027 616.56 269.083 688.073 218.713 659.914ZM34.5017 349.351C34.5017 292.762 133.056 263.935 179.282 251.262C189.391 283.137 202.649 316.465 218.649 350.167C202.441 384.37 188.994 418.226 178.792 450.477C134.715 438.243 34.5017 405.976 34.5017 349.351ZM218.177 40.4799C268.517 12.2274 346.627 81.0339 380.043 112.003C356.58 136.434 333.391 164.247 311.239 194.56C273.253 197.973 236.889 203.455 203.46 210.8C190.918 162.096 167.89 68.702 218.177 40.4799ZM521.75 230.922C547.521 234.075 572.212 238.269 595.396 243.401C588.436 265.031 579.762 287.649 569.544 310.835C554.734 283.589 538.836 256.889 521.75 230.922ZM404.231 135.91C420.145 152.626 436.084 171.293 451.764 191.544C419.96 190.085 388.104 190.08 356.3 191.523C371.993 171.459 388.069 152.82 404.231 135.91ZM238.444 310.811C228.396 287.705 219.799 264.988 212.779 243.048C235.824 238.048 260.4 233.962 286.004 230.86C268.87 256.771 252.999 283.46 238.444 310.811ZM286.739 470.23C260.29 467.368 235.342 463.489 212.304 458.627C219.435 436.302 228.221 413.094 238.484 389.491C253.238 417.127 269.352 444.075 286.739 470.23ZM405.187 565.156C388.834 548.046 372.521 529.122 356.591 508.768C388.575 509.985 420.622 509.988 452.604 508.604C436.875 529.329 420.993 548.28 405.187 565.156ZM569.873 388.29C580.669 412.149 589.769 435.23 596.998 457.178C573.577 462.361 548.294 466.534 521.653 469.633C538.865 443.173 555.017 416.058 569.873 388.29ZM477.812 473.687C428.887 477.077 379.658 477.039 330.718 473.965C302.909 434.579 278.153 393.158 256.784 350.156C278.051 307.243 302.626 265.903 330.303 226.579C379.279 222.99 428.556 222.98 477.532 226.601C504.972 265.922 529.51 307.155 551.269 349.68C529.768 392.571 505.063 433.995 477.812 473.687ZM587.739 39.4854C638.093 67.6453 615.68 167.657 604.679 211.147C571.17 203.649 534.781 198.07 496.685 194.603C474.49 163.963 451.495 136.101 428.411 111.986C462.256 80.3495 537.872 11.6009 587.739 39.4854Z" fill="#53C1DE"/>
</svg>
