<svg width="750" height="700" viewBox="0 0 750 700" fill="none" xmlns="http://www.w3.org/2000/svg">
<path d="M519.67 488.875C547.348 486.058 568.345 462.6 567.39 434.448C566.438 406.301 542.575 383.78 513.943 383.78H512.035C482.445 384.718 459.543 409.116 460.498 438.203C461.453 452.278 467.178 464.476 475.768 472.921C443.318 535.791 393.687 581.768 319.245 620.24C268.66 646.513 216.17 655.898 163.679 649.33C120.729 643.701 87.3252 624.935 66.3252 593.965C35.786 547.988 32.9237 498.255 58.6932 448.525C76.828 412.868 105.457 386.593 123.592 373.455C119.774 361.258 114.047 340.616 111.184 325.603C-27.2051 424.128 -12.8877 557.373 29.1065 620.24C60.6005 667.158 124.547 696.248 195.173 696.248C214.26 696.248 233.347 694.368 252.437 689.68C374.602 666.22 467.18 594.905 519.67 488.875ZM687.647 372.521C615.112 289.008 508.217 243.031 386.052 243.031H370.785C362.195 226.141 344.06 214.878 324.017 214.878H322.107C292.522 215.818 269.62 240.213 270.572 269.303C271.527 297.453 295.385 319.973 324.017 319.973H325.925C346.922 319.035 365.057 305.898 372.692 288.068H389.87C462.408 288.068 531.122 308.71 593.162 349.06C640.88 380.025 675.24 420.375 694.328 469.168C710.552 508.578 709.597 547.05 692.417 579.893C665.695 629.623 620.84 656.836 561.665 656.836C523.487 656.836 487.223 645.576 468.133 637.13C457.635 646.513 438.545 661.525 425.182 670.913C466.225 689.678 508.217 700 548.302 700C639.925 700 707.69 650.266 733.46 600.535C761.135 546.11 759.225 452.278 687.647 372.521ZM202.807 504.823C203.763 532.973 227.622 555.49 256.255 555.49H258.165C287.75 554.555 310.655 530.158 309.7 501.07C308.747 472.918 284.885 450.4 256.255 450.4H254.347C252.437 450.4 249.572 450.4 247.667 451.335C208.535 387.53 192.31 318.096 198.038 243.028C201.852 186.727 220.942 137.933 254.347 97.583C282.022 62.8643 335.47 45.9745 371.74 45.0385C472.905 43.1605 515.85 167.02 518.715 216.753C531.122 219.568 552.12 226.138 566.438 230.83C554.982 78.821 459.542 0 367.922 0C282.022 0 202.807 60.9923 171.31 151.072C127.409 271.178 156.041 386.593 209.487 477.613C204.718 484.18 201.852 494.5 202.807 504.823Z" fill="#764ABC"/>
</svg>
