<svg width="935" height="700" viewBox="0 0 935 700" fill="none" xmlns="http://www.w3.org/2000/svg">
<path d="M804.43 402.744C775.092 402.783 746.146 409.492 719.782 422.363C711.528 408.665 705.154 393.919 700.831 378.521C698.347 366.452 697.773 354.067 699.129 341.82C701.981 328.343 705.681 315.059 710.207 302.048C710.04 300.347 708.171 292.306 689.387 292.039C670.602 291.772 654.42 295.609 652.685 300.58C649.423 309.661 646.803 318.959 644.844 328.407C629.298 366.76 610.161 403.559 587.69 438.312C575.1 417.672 569.922 393.358 573.009 369.379C575.861 355.902 579.561 342.619 584.086 329.608C583.92 327.906 582.051 319.865 563.267 319.598C544.482 319.332 528.3 323.169 526.565 328.14C524.83 333.111 522.628 344.823 518.724 355.966C514.821 367.11 469.244 468.941 457.299 495.199C451.16 508.545 445.855 519.422 442.118 526.762C441.941 527.239 441.717 527.697 441.451 528.13C438.114 534.436 436.346 537.873 436.346 537.873V538.04C433.777 542.644 431.041 546.915 429.673 546.915C427.287 537.383 427.402 527.396 430.006 517.921C436.679 482.587 453.028 427.668 452.862 425.766C452.862 424.732 455.931 415.19 442.285 410.251C439.12 408.745 435.566 408.257 432.112 408.855C428.658 409.453 425.475 411.106 423 413.588C421.799 413.588 420.964 416.491 420.964 416.491C420.964 416.491 435.812 354.732 392.637 354.732C375.824 358.114 359.858 364.824 345.676 374.467C331.495 384.111 319.385 396.493 310.059 410.885C298.448 417.191 273.724 430.671 247.266 445.185C237.256 450.823 226.78 456.462 217.07 461.867C216.403 461.2 215.702 460.332 215.035 459.665C162.485 403.679 65.893 364.174 70.0636 289.27C71.5984 261.977 80.974 190.309 255.54 103.259C399.21 32.4583 513.553 52.077 533.338 95.5851C561.665 157.711 472.08 273.054 323.638 289.77C307.216 293.102 290.255 292.7 274.01 288.594C257.764 284.487 242.649 276.782 229.782 266.047C221.942 257.506 220.74 257.006 217.838 258.707C213.066 261.276 216.136 268.95 217.838 273.388C223.501 283.636 231.16 292.645 240.363 299.883C249.567 307.121 260.128 312.441 271.422 315.528C329.819 328.147 390.704 322.114 445.488 298.278C535.574 263.478 605.64 166.72 585.087 85.6757C564.434 3.43071 427.938 -23.6951 298.748 22.282C217.829 49.5104 143.061 92.3988 78.7052 148.502C7.53741 215.066 -3.70665 272.887 0.89774 297.144C17.5803 383.159 136.06 439.112 183.472 480.652C181.069 482.02 178.867 483.221 176.999 484.222C153.276 496 62.8567 543.278 40.2018 593.259C14.6108 649.98 44.3057 690.518 63.9244 695.99C93.4861 703.067 124.52 700.736 152.693 689.323C180.866 677.91 204.772 657.985 221.074 632.33C234.956 611.05 243.489 586.73 245.946 561.442C248.404 536.153 244.713 510.646 235.188 487.091C235.027 486.711 234.801 486.361 234.52 486.057L253.105 475.147C265.216 467.973 277.161 461.333 287.404 455.862C280.458 475.896 276.38 496.811 275.292 517.987C272.934 550.444 282.867 582.601 303.119 608.073C306.201 610.726 309.778 612.741 313.644 614.001C317.51 615.261 321.587 615.741 325.64 615.414C345.659 615.414 354.835 598.731 364.878 578.912C377.156 554.689 388.233 526.529 388.233 526.529C388.233 526.529 374.42 602.635 411.956 602.635C425.602 602.635 439.415 584.884 445.588 575.943V576.109C445.588 576.109 445.922 575.609 446.622 574.408L448.824 570.838V570.504C454.296 560.962 466.575 539.274 484.825 503.273C508.381 456.862 531.069 398.841 531.069 398.841C533.258 411.592 536.278 424.186 540.111 436.543C545.607 451.522 552.105 466.113 559.563 480.218C554.091 487.892 550.688 492.163 550.688 492.163L550.855 492.33C546.417 498.135 541.646 504.441 536.341 510.58C520.557 527.933 505.913 546.289 492.499 565.533C490.506 568.765 489.821 572.636 490.584 576.356C491.346 580.076 493.499 583.364 496.603 585.552C503.627 589.206 511.633 590.527 519.458 589.322C531.251 588.656 542.847 586.005 553.758 581.481C564.301 577.771 574.248 572.544 583.286 565.966C592.602 559.512 600.102 550.769 605.063 540.578C610.023 530.388 612.279 519.092 611.613 507.778C610.564 493.525 606.923 479.584 600.869 466.638C602.571 464.236 604.206 461.867 605.807 459.465C624.776 431.151 641.874 401.626 656.989 371.081C659.178 383.832 662.198 396.427 666.031 408.783C670.564 421.728 676.143 434.281 682.714 446.319C660.891 463.109 643.702 485.178 632.766 510.447C622.023 541.51 630.364 555.49 646.112 558.726C654.73 559.32 663.346 557.555 671.036 553.621C682.343 549.905 692.994 544.433 702.599 537.406C712.727 531.429 721.211 523.027 727.285 512.957C733.36 502.887 736.835 491.464 737.399 479.718C736.642 467.992 733.994 456.466 729.558 445.585C758.356 434.335 789.58 430.748 820.178 435.175C901.389 444.718 917.437 495.399 914.368 516.753C912.928 524.323 909.885 531.497 905.442 537.793C900.999 544.089 895.26 549.361 888.61 553.254C882.971 556.824 881.103 558.026 881.603 560.595C882.27 564.365 884.94 564.165 889.778 563.497C902.017 559.693 912.816 552.268 920.75 542.202C928.685 532.135 933.381 519.9 934.22 507.11C936.789 457.063 889.01 402.177 804.53 402.678L804.43 402.744ZM177.833 613.879C150.874 643.24 113.338 654.317 97.1227 644.942C79.7061 634.932 86.546 591.557 119.644 560.461C139.278 542.787 160.499 526.961 183.038 513.183C186.975 510.781 192.78 507.377 199.72 503.173L201.589 502.139L205.693 499.57C211.606 519.382 212.142 540.41 207.246 560.498C202.35 580.586 192.199 599.009 177.833 613.879ZM374.053 480.418C364.678 503.273 345.059 561.829 333.114 558.559C322.871 555.823 316.432 511.448 331.079 467.606C338.474 446.501 349.247 426.737 362.976 409.084C377.657 392.701 393.872 387.23 397.776 393.903C394.214 423.76 386.219 452.92 374.053 480.418ZM535.974 557.892C532.037 559.927 528.3 561.229 526.598 560.294C525.397 559.627 528.3 556.958 528.3 556.958C528.3 556.958 548.619 535.104 556.627 525.228C561.231 519.422 566.637 512.616 572.509 504.908V507.11C572.509 533.202 547.251 550.785 536.007 557.959L535.974 557.892ZM660.893 529.398C657.99 527.363 658.491 520.523 668.233 499.203C675.007 485.51 684.471 473.323 696.06 463.369C697.836 468.419 698.761 473.73 698.796 479.084C698.927 490.479 695.284 501.598 688.433 510.705C681.583 519.813 671.911 526.397 660.926 529.432L660.893 529.398Z" fill="#CD6799"/>
</svg>
