<svg width="700" height="700" viewBox="0 0 700 700" fill="none" xmlns="http://www.w3.org/2000/svg">
<circle cx="350" cy="350" r="350" fill="#3178C6"/>
<path fill-rule="evenodd" clip-rule="evenodd" d="M375.672 407.199V460.889C385.427 465.703 395.824 469.092 406.542 470.951C418.929 473.238 431.502 474.363 444.097 474.311C456.373 474.369 468.621 473.132 480.637 470.619C491.426 468.439 501.719 464.286 511 458.369C519.616 452.807 526.717 445.194 531.667 436.214C540.533 417.617 541.703 396.273 534.922 376.819C532.061 369.544 527.798 362.902 522.375 357.271C516.554 351.284 509.942 346.12 502.722 341.924C494.411 337.055 485.774 332.764 476.875 329.079C469.875 326.174 463.575 323.35 457.975 320.609C453.001 318.227 448.241 315.423 443.747 312.226C440.228 309.759 437.171 306.69 434.717 303.161C432.597 299.957 431.493 296.188 431.55 292.346C431.503 288.81 432.488 285.338 434.385 282.354C436.445 279.23 439.192 276.62 442.417 274.724C446.36 272.402 450.649 270.73 455.122 269.771C460.614 268.551 466.227 267.964 471.852 268.021C476.583 268.037 481.308 268.376 485.992 269.036C491.051 269.72 496.057 270.755 500.972 272.134C505.972 273.519 510.862 275.274 515.602 277.384C520.202 279.434 524.602 281.906 528.745 284.769V234.666C520.119 231.403 511.174 229.056 502.057 227.666C491.048 226.064 479.932 225.309 468.807 225.409C456.647 225.343 444.522 226.724 432.687 229.521C421.99 231.965 411.819 236.31 402.657 242.349C394.147 248.018 387.119 255.645 382.165 264.591C376.914 274.525 374.316 285.646 374.622 296.879C374.235 311.732 379.127 326.242 388.43 337.829C399.843 350.675 414.235 360.524 430.342 366.511C437.692 369.544 444.547 372.514 450.905 375.419C456.642 377.971 462.156 380.997 467.39 384.466C471.612 387.212 475.319 390.677 478.345 394.704C481.005 398.356 482.417 402.768 482.37 407.286C482.394 410.672 481.525 414.004 479.85 416.946C477.989 420.108 475.373 422.759 472.237 424.664C468.313 427.056 464.02 428.783 459.532 429.774C453.686 431.081 447.707 431.697 441.717 431.611C429.963 431.589 418.302 429.517 407.26 425.486C395.724 421.323 385.026 415.13 375.672 407.199ZM285.477 273.534H355.477V229.311H160.3V273.534H229.985V470.479H285.477V273.534Z" fill="white"/>
</svg>
