<svg width="619" height="700" viewBox="0 0 619 700" fill="none" xmlns="http://www.w3.org/2000/svg">
<path d="M309.321 0L618.643 174.971V525.029L309.321 700L0 525.029V174.971L309.321 0Z" fill="white"/>
<path d="M563.432 512.89L319.593 650.976V543.589L471.569 459.897L563.432 512.89ZM580.124 497.833V209.288L490.946 260.764V446.357L580.124 497.833ZM54.2772 512.89L298.116 650.859V543.472L146.14 459.897L54.2772 512.89ZM37.5855 497.833V209.288L126.763 260.764V446.357L37.5855 497.833ZM47.9741 190.612L298.116 49.1416V153.027L137.852 241.154L136.568 241.855L47.9741 190.612ZM569.618 190.612L319.593 49.1416V153.027L479.74 241.271L481.024 241.971L569.618 190.612Z" fill="#8ED6FB"/>
<path d="M298.116 519.077L148.241 436.552V273.254L298.116 359.747V519.077ZM319.593 519.077L469.468 436.669V273.254L319.593 359.747V519.077ZM158.279 254.344L308.854 171.586L459.313 254.344L308.854 341.188L158.279 254.344Z" fill="#1C78C0"/>
</svg>
